<svg width="14" height="22" viewBox="0 0 14 22" fill="none" xmlns="http://www.w3.org/2000/svg">
<path d="M13.5444 13.5385C14.0813 13.0234 14.158 12.2876 13.6978 11.5518C13.3143 10.9632 12.6241 10.6689 11.8571 10.8161C11.5503 10.8896 11.2435 11.0368 10.9367 11.2575C8.55904 12.8027 5.33772 12.7291 2.96007 11.184C2.80668 11.1104 2.65328 11.0368 2.49988 10.9632C1.6562 10.5953 0.812526 10.7425 0.352336 11.4783C-0.184551 12.2141 -0.107862 13.0234 0.582422 13.6856C0.735818 13.8328 0.889215 13.9064 0.965913 14.0535L1.04262 14.1271C2.11639 14.9365 3.42026 15.4515 5.10763 15.6722L4.11055 16.6288C3.26687 17.4381 2.34649 18.3211 1.50281 19.1304C1.27272 19.3512 0.965913 19.7191 0.965913 20.2341C0.965913 20.8963 1.34941 21.5585 2.0397 21.8528C2.26979 22 2.49988 22 2.72998 22C3.11347 22 3.57366 21.8528 3.88045 21.485C5.03092 20.3813 5.95131 19.4983 6.87169 18.6154C6.94839 18.5418 6.94838 18.5418 6.94838 18.5418C6.94838 18.5418 7.02508 18.5418 7.02508 18.6154C7.63867 19.2776 8.32895 19.8662 8.94254 20.5284C9.24933 20.8227 9.55612 21.1171 9.86292 21.4114C10.2464 21.7793 10.5532 21.9264 11.0134 21.9264C11.7037 22 12.4707 21.5585 12.7775 20.8963C13.0842 20.3077 12.9308 19.5719 12.394 19.1304C11.627 18.3947 10.86 17.5853 10.0163 16.8495L8.71244 15.5987C9.40273 15.5251 10.1697 15.3779 10.86 15.0836C12.0105 14.7157 12.8542 14.2007 13.5444 13.5385Z" fill="#E0E2EC"/>
<path d="M6.94838 11.4783C10.2464 11.4783 12.9308 8.97658 12.9308 5.8127C12.9308 4.26755 12.3173 2.79599 11.1668 1.69231C10.0163 0.588631 8.55905 0 7.02508 0C3.72706 0 1.11931 2.57525 1.04262 5.66555C1.04262 7.2107 1.6562 8.60869 2.80668 9.71237C3.88045 10.8896 5.33772 11.4783 6.94838 11.4783ZM5.26102 4.1204C5.72121 3.67893 6.33479 3.45819 6.94838 3.45819C8.32895 3.45819 9.32603 4.4883 9.32603 5.73913C9.32603 7.06355 8.25225 8.02006 6.94838 8.02006C5.56781 8.02006 4.57074 6.98997 4.57074 5.73913C4.57074 5.1505 4.80083 4.56188 5.26102 4.1204Z" fill="#E0E2EC"/>
<path d="M13.5444 13.5385C14.0813 13.0234 14.158 12.2876 13.6978 11.5518C13.3143 10.9632 12.6241 10.6689 11.8571 10.8161C11.5503 10.8896 11.2435 11.0368 10.9367 11.2575C8.55904 12.8027 5.33772 12.7291 2.96007 11.184C2.80668 11.1104 2.65328 11.0368 2.49988 10.9632C1.6562 10.5953 0.812526 10.7425 0.352336 11.4783C-0.184551 12.2141 -0.107862 13.0234 0.582422 13.6856C0.735818 13.8328 0.889215 13.9064 0.965913 14.0535L1.04262 14.1271C2.11639 14.9365 3.42026 15.4515 5.10763 15.6722L4.11055 16.6288C3.26687 17.4381 2.34649 18.3211 1.50281 19.1304C1.27272 19.3512 0.965913 19.7191 0.965913 20.2341C0.965913 20.8963 1.34941 21.5585 2.0397 21.8528C2.26979 22 2.49988 22 2.72998 22C3.11347 22 3.57366 21.8528 3.88045 21.485C5.03092 20.3813 5.95131 19.4983 6.87169 18.6154C6.94839 18.5418 6.94838 18.5418 6.94838 18.5418C6.94838 18.5418 7.02508 18.5418 7.02508 18.6154C7.63867 19.2776 8.32895 19.8662 8.94254 20.5284C9.24933 20.8227 9.55612 21.1171 9.86292 21.4114C10.2464 21.7793 10.5532 21.9264 11.0134 21.9264C11.7037 22 12.4707 21.5585 12.7775 20.8963C13.0842 20.3077 12.9308 19.5719 12.394 19.1304C11.627 18.3947 10.86 17.5853 10.0163 16.8495L8.71244 15.5987C9.40273 15.5251 10.1697 15.3779 10.86 15.0836C12.0105 14.7157 12.8542 14.2007 13.5444 13.5385Z" fill="#E0E2EC"/>
</svg>
