<svg width="20" height="16" viewBox="0 0 20 16" fill="none" xmlns="http://www.w3.org/2000/svg">
<path d="M20 1.94871C19.2857 2.2564 18.4694 2.46154 17.6531 2.5641C18.4694 2.05128 19.1837 1.23077 19.4898 0.307695C18.6735 0.820516 17.8572 1.12821 16.8367 1.33334C16.1225 0.512823 15 0 13.8775 0C11.6326 0 9.79591 1.84615 9.79591 4.10256C9.79591 4.41025 9.79592 4.71794 9.89796 5.02563C6.53061 4.8205 3.46938 3.17948 1.42857 0.717945C1.12244 1.33333 0.918362 2.05128 0.918362 2.76923C0.918362 4.20512 1.63265 5.4359 2.7551 6.15384C2.04081 6.15384 1.42857 5.94872 0.918362 5.64102C0.918362 7.58974 2.34693 9.33332 4.18367 9.64102C3.87754 9.74358 3.46939 9.74359 3.06123 9.74359C2.7551 9.74359 2.55102 9.74358 2.2449 9.64102C2.7551 11.282 4.28572 12.5128 6.12245 12.5128C4.69388 13.641 2.95918 14.2564 1.02041 14.2564C0.714286 14.2564 0.408163 14.2564 0 14.1538C1.83674 15.282 3.97959 16 6.32653 16C13.8776 16 17.9592 9.74358 17.9592 4.30769V3.79487C18.7755 3.48717 19.4898 2.76922 20 1.94871Z" fill="#E0E2EC"/>
</svg>
