<svg width="20" height="12" viewBox="0 0 20 12" fill="none" xmlns="http://www.w3.org/2000/svg">
<path d="M19.8142 10.7671C19.8142 10.6849 19.7346 10.6849 19.7346 10.6027C19.4163 9.94521 18.7002 9.12329 17.7453 8.21918C17.2678 7.80822 17.0291 7.47945 16.8699 7.31507C16.6312 6.9863 16.6312 6.73973 16.7108 6.41097C16.7904 6.16439 17.1087 5.75342 17.6657 5.01369C17.984 4.60274 18.1431 4.35617 18.3819 4.10959C19.5755 2.46575 20.1325 1.39725 19.9734 0.904103L19.8938 0.821918C19.8142 0.739726 19.7346 0.657537 19.5755 0.657537C19.4163 0.575345 19.1776 0.575345 18.9389 0.657537H15.915C15.8355 0.657537 15.8355 0.657537 15.6763 0.657537C15.5967 0.657537 15.5172 0.657537 15.5172 0.657537H15.4376H15.358L15.2784 0.739721C15.1989 0.821913 15.1989 0.821911 15.1989 0.904103C14.8806 1.80821 14.4827 2.54794 14.0848 3.36986C13.8461 3.78082 13.6074 4.19178 13.3686 4.52055C13.1299 4.84932 12.9707 5.09589 12.8116 5.26027C12.6524 5.42466 12.4933 5.50685 12.4137 5.67123C12.3341 5.75342 12.175 5.83562 12.175 5.75343C12.0954 5.75343 12.0158 5.75342 12.0158 5.67123C11.9363 5.58904 11.8567 5.50684 11.7771 5.42465C11.6976 5.34246 11.6975 5.17808 11.618 5.01369C11.618 4.84931 11.618 4.68493 11.618 4.60274C11.618 4.52054 11.618 4.27398 11.618 4.10959C11.618 3.86302 11.618 3.69863 11.618 3.61644C11.618 3.36986 11.618 3.0411 11.618 2.71233C11.618 2.38357 11.618 2.13698 11.618 1.9726C11.618 1.80822 11.618 1.56164 11.618 1.39726C11.618 1.15068 11.618 0.986294 11.618 0.904103C11.618 0.821911 11.5384 0.657532 11.5384 0.57534C11.4588 0.493148 11.3792 0.410954 11.2997 0.328762C11.2201 0.24657 11.061 0.246573 10.9814 0.164381C10.5835 0.0821893 10.1061 0 9.54903 0C8.27583 0 7.4005 0.0821943 7.0822 0.246578C6.92305 0.32877 6.7639 0.410957 6.68432 0.57534C6.52517 0.739724 6.52517 0.821918 6.60474 0.821918C7.00262 0.90411 7.32092 1.06849 7.48007 1.31506L7.55965 1.47946C7.63923 1.56165 7.63922 1.72602 7.71879 1.9726C7.79837 2.21917 7.79837 2.46575 7.79837 2.79452C7.79837 3.28767 7.79837 3.78082 7.79837 4.10959C7.79837 4.52055 7.71879 4.76712 7.71879 5.01369C7.71879 5.26027 7.63923 5.42466 7.55965 5.50685C7.48008 5.67123 7.48007 5.75343 7.4005 5.75343C7.4005 5.75343 7.40049 5.83561 7.32091 5.83561C7.24134 5.83561 7.16177 5.91781 7.00262 5.91781C6.92304 5.91781 6.7639 5.83562 6.68432 5.75343C6.52517 5.67124 6.36602 5.50685 6.28645 5.34247C6.1273 5.17809 5.96814 4.9315 5.80899 4.60274C5.64984 4.27397 5.41111 3.94521 5.25196 3.45205L5.09282 3.12329C5.01324 2.95891 4.85409 2.63014 4.69494 2.21918C4.53579 1.80822 4.37664 1.47946 4.21749 1.0685C4.13791 0.904113 4.05835 0.821913 3.97877 0.739721H3.89919C3.89919 0.739721 3.81961 0.657537 3.74003 0.657537C3.66046 0.657537 3.58089 0.57534 3.50132 0.57534H0.636604C0.318303 0.57534 0.159155 0.65753 0.07958 0.739721L0 0.821918C0 0.821918 0 0.904108 0 0.986299C0 1.06849 4.8557e-06 1.15068 0.07958 1.31506C0.477456 2.30136 0.954905 3.28767 1.43236 4.27397C1.90981 5.17808 2.38726 6 2.70556 6.57535C3.10344 7.15069 3.42174 7.72603 3.81961 8.21918C4.21749 8.71233 4.45621 9.0411 4.53578 9.20548C4.69493 9.36987 4.7745 9.45205 4.85408 9.53424L5.09282 9.78082C5.25197 9.94521 5.49069 10.1918 5.80899 10.4384C6.12729 10.6849 6.52516 10.9315 6.92304 11.1781C7.32091 11.4247 7.79838 11.5891 8.27583 11.7534C8.83285 11.9178 9.3103 12 9.78775 11.9178H10.9814C11.2201 11.9178 11.3793 11.8356 11.5384 11.6712L11.618 11.589C11.618 11.5068 11.6975 11.5069 11.6975 11.4247C11.6975 11.3425 11.6975 11.2603 11.6975 11.0959C11.6975 10.7671 11.6976 10.5206 11.7771 10.274C11.8567 10.0274 11.8567 9.86302 11.9363 9.69864C12.0159 9.53426 12.0954 9.45206 12.175 9.36986C12.2546 9.28767 12.3342 9.20548 12.3342 9.20548H12.4137C12.5729 9.12329 12.8116 9.20548 12.9708 9.36986C13.2095 9.53425 13.4482 9.78083 13.6073 10.0274C13.7665 10.274 14.0052 10.5206 14.3235 10.8493C14.6418 11.1781 14.8806 11.4247 15.0397 11.5069L15.2784 11.6712C15.4376 11.7534 15.5967 11.8356 15.8355 11.9178C16.0742 12 16.2333 12 16.3925 12L19.0981 11.9178C19.3368 11.9178 19.5755 11.8356 19.7346 11.7534C19.8938 11.6712 19.9734 11.589 19.9734 11.4247C19.9734 11.3425 19.9734 11.1781 19.9734 11.0959C19.8142 10.9315 19.8142 10.8493 19.8142 10.7671Z" fill="#E0E2EC"/>
</svg>
